<svg width="50" height="55" viewBox="0 0 50 55" fill="none" xmlns="http://www.w3.org/2000/svg">
<path d="M20 37H24.5C25.2956 37 26.0587 37.3161 26.6213 37.8787C27.1839 38.4413 27.5 39.2044 27.5 40V47.5C27.5 48.2956 27.1839 49.0587 26.6213 49.6213C26.0587 50.1839 25.2956 50.5 24.5 50.5H20C19.2044 50.5 18.4413 50.1839 17.8787 49.6213C17.3161 49.0587 17 48.2956 17 47.5V37C17 28.7155 23.7155 22 32 22C40.2845 22 47 28.7155 47 37V47.5C47 48.2956 46.6839 49.0587 46.1213 49.6213C45.5587 50.1839 44.7956 50.5 44 50.5H39.5C38.7044 50.5 37.9413 50.1839 37.3787 49.6213C36.8161 49.0587 36.5 48.2956 36.5 47.5V40C36.5 39.2044 36.8161 38.4413 37.3787 37.8787C37.9413 37.3161 38.7044 37 39.5 37H44C44 33.8174 42.7357 30.7652 40.4853 28.5147C38.2348 26.2643 35.1826 25 32 25C28.8174 25 25.7652 26.2643 23.5147 28.5147C21.2643 30.7652 20 33.8174 20 37Z" fill="#39A3FA"/>
<circle cx="16" cy="16" r="16" fill="white"/>
<path d="M11.7479 23V21.708L17.1629 16.483C17.6443 16.027 17.9989 15.628 18.2269 15.286C18.4676 14.9313 18.6259 14.6083 18.7019 14.317C18.7906 14.013 18.8349 13.7217 18.8349 13.443C18.8349 12.759 18.5943 12.2207 18.1129 11.828C17.6316 11.4353 16.9286 11.239 16.0039 11.239C15.2946 11.239 14.6549 11.3593 14.0849 11.6C13.5149 11.828 13.0209 12.189 12.6029 12.683L11.3109 11.562C11.8176 10.916 12.4953 10.422 13.3439 10.08C14.2053 9.72533 15.1489 9.548 16.1749 9.548C17.0996 9.548 17.9039 9.7 18.5879 10.004C19.2719 10.2953 19.7976 10.7197 20.1649 11.277C20.5449 11.8343 20.7349 12.493 20.7349 13.253C20.7349 13.6837 20.6779 14.108 20.5639 14.526C20.4499 14.944 20.2346 15.3873 19.9179 15.856C19.6013 16.3247 19.1453 16.8503 18.5499 17.433L13.7239 22.088L13.2679 21.347H21.3049V23H11.7479Z" fill="black"/>
</svg>
