<svg width="49" height="55" viewBox="0 0 49 55" fill="none" xmlns="http://www.w3.org/2000/svg">
<path d="M26.59 21.8951C23.755 21.8801 20.995 24.6101 22.255 28.0001H17.5C16.7044 28.0001 15.9413 28.3162 15.3787 28.8788C14.8161 29.4414 14.5 30.2044 14.5 31.0001V34.0001C14.5 34.3979 14.658 34.7794 14.9393 35.0607C15.2206 35.342 15.6022 35.5001 16 35.5001H29.5V31.0001H32.5V35.5001H46C46.3978 35.5001 46.7794 35.342 47.0607 35.0607C47.342 34.7794 47.5 34.3979 47.5 34.0001V31.0001C47.5 30.2044 47.1839 29.4414 46.6213 28.8788C46.0587 28.3162 45.2956 28.0001 44.5 28.0001H39.745C41.5 23.0951 34.9 19.6301 31.855 23.8601L31 25.0001L30.145 23.8301C29.2 22.4951 27.895 21.9101 26.59 21.8951ZM26.5 25.0001C27.835 25.0001 28.51 26.6201 27.565 27.5651C26.62 28.5101 25 27.8351 25 26.5001C25 26.1023 25.158 25.7207 25.4393 25.4394C25.7206 25.1581 26.1022 25.0001 26.5 25.0001ZM35.5 25.0001C36.835 25.0001 37.51 26.6201 36.565 27.5651C35.62 28.5101 34 27.8351 34 26.5001C34 26.1023 34.158 25.7207 34.4393 25.4394C34.7206 25.1581 35.1022 25.0001 35.5 25.0001ZM16 37.0001V49.0001C16 49.7957 16.3161 50.5588 16.8787 51.1214C17.4413 51.684 18.2044 52.0001 19 52.0001H43C43.7956 52.0001 44.5587 51.684 45.1213 51.1214C45.6839 50.5588 46 49.7957 46 49.0001V37.0001H32.5V49.0001H29.5V37.0001H16Z" fill="#39A3FA"/>
<circle cx="16" cy="16" r="16" fill="white"/>
<path d="M16.0415 23.152C15.1041 23.152 14.1921 23.0063 13.3055 22.715C12.4315 22.4237 11.7158 22.031 11.1585 21.537L12.0325 20.036C12.4758 20.454 13.0521 20.796 13.7615 21.062C14.4708 21.328 15.2308 21.461 16.0415 21.461C17.0295 21.461 17.7958 21.252 18.3405 20.834C18.8978 20.4033 19.1765 19.827 19.1765 19.105C19.1765 18.4083 18.9105 17.851 18.3785 17.433C17.8591 17.0023 17.0295 16.787 15.8895 16.787H14.8255V15.457L18.7775 10.593L19.0435 11.353H11.7665V9.7H20.5445V10.992L16.6115 15.837L15.6235 15.248H16.2505C17.8591 15.248 19.0625 15.609 19.8605 16.331C20.6711 17.053 21.0765 17.9713 21.0765 19.086C21.0765 19.8333 20.8928 20.5173 20.5255 21.138C20.1581 21.7587 19.6008 22.2527 18.8535 22.62C18.1188 22.9747 17.1815 23.152 16.0415 23.152Z" fill="black"/>
</svg>
