<svg width="64" height="51" viewBox="0 0 64 51" fill="none" xmlns="http://www.w3.org/2000/svg">
<path d="M17.0718 40.8057C17.2479 40.4841 17.4699 40.4305 17.8144 40.6143C18.6107 41.043 19.3916 41.4871 20.2032 41.8929C23.3091 43.4417 26.5816 44.631 29.9572 45.4377C31.5528 45.8221 33.1683 46.1237 34.796 46.3412C37.2062 46.6658 39.6378 46.7975 42.0694 46.7393C47.739 46.572 53.3293 45.3626 58.561 43.1715C58.783 43.0796 59.0127 43.0183 59.2577 43.0796C59.7707 43.2174 59.9468 43.7687 59.5716 44.1438C59.3435 44.3536 59.0969 44.5435 58.8366 44.7104C56.4862 46.3258 53.9213 47.4972 51.211 48.3777C49.3342 48.9824 47.4112 49.433 45.4612 49.7252C44.1121 49.9319 42.7524 50.0544 41.388 50.0927C41.3238 50.0965 41.2599 50.1042 41.1966 50.1157H39.5812C39.5178 50.1049 39.4539 50.0973 39.3897 50.0927C39.1141 50.0774 38.8385 50.0697 38.5705 50.0621C35.151 49.8966 31.7756 49.2204 28.5562 48.0562C24.4463 46.574 20.6612 44.3123 17.4087 41.3952C17.2708 41.2727 17.179 41.1043 17.0718 40.9588V40.8057ZM29.1687 20.8841L28.8394 20.9301C27.7867 21.06 26.7849 21.4581 25.9301 22.0862C25.7463 22.2163 25.5779 22.3541 25.3865 22.4996C25.3703 22.4659 25.3599 22.4296 25.3558 22.3924C25.3252 22.1857 25.2946 21.9713 25.2563 21.7646C25.2027 21.4124 25.0266 21.2593 24.6744 21.2593H23.794C23.2657 21.2593 23.1662 21.3588 23.1662 21.8871V37.9116C23.1662 37.9882 23.1662 38.0647 23.1738 38.1413C23.1891 38.371 23.3269 38.5165 23.549 38.5241C24.0849 38.5318 24.6285 38.5318 25.1644 38.5241C25.3865 38.5241 25.5243 38.371 25.5472 38.1413C25.5549 38.0647 25.5549 37.9882 25.5549 37.9116V32.3685C25.6391 32.4374 25.6851 32.4757 25.7233 32.514C27.0938 33.6547 28.671 34.0299 30.3937 33.693C31.9555 33.3868 33.0427 32.4297 33.7471 31.021C34.283 29.9568 34.5051 28.8237 34.5357 27.6446C34.574 26.3354 34.4438 25.0491 33.9155 23.8318C33.2647 22.3312 32.1852 21.3435 30.5544 21.0066C30.3094 20.953 30.0568 20.9301 29.8041 20.8918C29.5897 20.8841 29.383 20.8841 29.1687 20.8841ZM25.5396 24.0921C25.535 24.042 25.5449 23.9916 25.5679 23.9468C25.591 23.9021 25.6263 23.8648 25.6697 23.8394C26.7187 23.1121 27.8747 22.7293 29.161 22.8288C30.3018 22.913 31.2358 23.4719 31.7258 24.8118C32.0244 25.631 32.101 26.4808 32.101 27.3383C32.101 28.1346 32.0397 28.9155 31.7947 29.6812C31.2741 31.3119 30.0797 31.9321 28.5332 31.8632C27.4613 31.8172 26.5272 31.4038 25.6697 30.799C25.6269 30.7729 25.5921 30.7355 25.5691 30.6909C25.5462 30.6464 25.5359 30.5963 25.5396 30.5463C25.5472 29.4668 25.5396 28.3949 25.5396 27.3154C25.5396 26.2358 25.5472 25.1716 25.5396 24.0921ZM41.2885 20.8841C41.2119 20.8918 41.1354 20.9071 41.0665 20.9147C40.3204 20.9464 39.5793 21.0516 38.8538 21.2287C38.3868 21.3512 37.9351 21.5196 37.4833 21.6727C37.2077 21.7646 37.0699 21.9637 37.0776 22.2622C37.0852 22.5149 37.0699 22.7676 37.0776 23.0202C37.0852 23.3877 37.2383 23.4872 37.5982 23.3954C38.1954 23.2422 38.7926 23.0738 39.3974 22.959C40.3391 22.7829 41.2885 22.7063 42.2455 22.8518C42.7432 22.9283 43.2102 23.0738 43.5318 23.4949C43.8151 23.8624 43.9222 24.2988 43.9376 24.7505C43.9605 25.386 43.9529 26.0215 43.9605 26.6569C43.9585 26.693 43.9534 26.7289 43.9452 26.7641C43.9069 26.7565 43.8763 26.7641 43.8457 26.7565C43.0421 26.5574 42.222 26.4318 41.3957 26.3813C40.5305 26.3354 39.673 26.389 38.8462 26.6799C37.8585 27.0244 37.0622 27.6216 36.5952 28.5863C36.2354 29.3366 36.1818 30.1329 36.2966 30.9368C36.4497 32.0087 36.9857 32.8355 37.9351 33.3638C38.8462 33.8691 39.8338 33.9304 40.8368 33.7772C41.9747 33.5987 43.0419 33.1114 43.9222 32.3685C43.9592 32.3351 44.0004 32.3068 44.0447 32.2843C44.0907 32.5752 44.129 32.8508 44.1826 33.1265C44.2285 33.3638 44.374 33.5169 44.596 33.5246C45.0094 33.5322 45.4305 33.5322 45.844 33.5246C45.9399 33.5238 46.0318 33.4859 46.1003 33.4188C46.1688 33.3517 46.2087 33.2606 46.2115 33.1647C46.2179 33.0935 46.2204 33.0219 46.2191 32.9504V24.8347C46.2237 24.5042 46.2007 24.1738 46.1502 23.8471C46.0047 22.8594 45.5837 22.0479 44.6955 21.5196C44.1826 21.2133 43.616 21.0602 43.0265 20.976C42.7508 20.9377 42.4752 20.9147 42.1996 20.8765C41.901 20.8841 41.5947 20.8841 41.2885 20.8841ZM43.9682 30.6612C43.971 30.7062 43.9619 30.7511 43.9417 30.7915C43.9215 30.8318 43.891 30.8661 43.8533 30.8908C42.9958 31.511 42.0541 31.9244 40.9899 32.0316C40.5535 32.0776 40.1171 32.0622 39.7037 31.8938C39.4765 31.8107 39.2721 31.6752 39.1071 31.4983C38.9421 31.3214 38.8212 31.108 38.7543 30.8755C38.6025 30.3924 38.5998 29.8748 38.7466 29.3902C38.938 28.7547 39.3897 28.3949 40.0022 28.1958C40.6169 28.0101 41.2632 27.9528 41.901 28.0274C42.5441 28.081 43.1719 28.2035 43.8151 28.2877C43.9376 28.303 43.9758 28.3643 43.9758 28.4868C43.9682 28.8543 43.9758 29.2141 43.9758 29.5816C43.9758 29.9491 43.9605 30.3013 43.9682 30.6612ZM63.8668 40.5683C63.7902 40.1855 63.4993 40.0401 63.1701 39.9329C62.6482 39.7687 62.1083 39.6685 61.5622 39.6343C60.5598 39.5486 59.5504 39.5975 58.561 39.7797C57.4662 39.9865 56.4249 40.3387 55.4985 40.9741C55.3881 41.045 55.2921 41.1358 55.2152 41.2421C55.1887 41.288 55.1716 41.3387 55.1651 41.3913C55.1585 41.4439 55.1625 41.4973 55.1769 41.5483C55.2076 41.6632 55.3377 41.6938 55.4526 41.6862C55.5088 41.6874 55.5651 41.6849 55.621 41.6785C56.2182 41.6172 56.8077 41.5483 57.4049 41.4871C58.2777 41.4029 59.1582 41.3493 60.031 41.4182C60.4046 41.4488 60.7737 41.5177 61.1335 41.6249C61.524 41.7321 61.7001 42.023 61.7154 42.4212C61.746 43.0337 61.6082 43.6232 61.4474 44.2051C61.1335 45.3841 60.6818 46.5249 60.2377 47.658C60.2054 47.7321 60.1797 47.809 60.1612 47.8877C60.1229 48.1097 60.253 48.2552 60.4751 48.2016C60.6122 48.1711 60.7389 48.1051 60.8426 48.0102C61.1886 47.6887 61.5132 47.3472 61.8149 46.9843C62.7949 45.7287 63.3691 44.2816 63.706 42.7274C63.7672 42.4518 63.8132 42.1685 63.8668 41.8929V40.5683ZM53.7529 31.1358L50.7899 22.9283C50.6368 22.4919 50.4683 22.0632 50.3076 21.6344C50.2233 21.4124 50.0626 21.2669 49.8176 21.2669C49.2357 21.2593 48.6538 21.2516 48.0643 21.2593C47.8729 21.2593 47.781 21.4124 47.8193 21.6038C47.856 21.7631 47.905 21.9192 47.9647 22.0708C49.4654 25.7841 50.9737 29.4974 52.4896 33.2107C52.6197 33.5246 52.6504 33.7926 52.5049 34.1141C52.2522 34.673 52.0532 35.2626 51.7929 35.8215C51.5632 36.3191 51.1804 36.6943 50.6291 36.8397C50.2447 36.9403 49.8449 36.9689 49.4501 36.924C49.2587 36.9087 49.0672 36.8627 48.8758 36.8474C48.6155 36.8321 48.4854 36.9469 48.4777 37.2149C48.4701 37.4675 48.4701 37.7203 48.4777 37.9729C48.4854 38.394 48.6308 38.5854 49.0443 38.6543C49.4715 38.7385 49.9033 38.7906 50.3382 38.8074C51.6474 38.838 52.6887 38.3097 53.3624 37.169C53.6334 36.7188 53.8692 36.2472 54.0668 35.7602C55.8813 31.1818 57.6836 26.5987 59.4721 22.0096C59.5287 21.8748 59.5686 21.7324 59.5946 21.5885C59.6252 21.3741 59.5257 21.2516 59.3113 21.2516C58.806 21.244 58.293 21.2516 57.7877 21.2516C57.6591 21.2426 57.5312 21.2769 57.4243 21.3491C57.3175 21.4212 57.2379 21.5271 57.1982 21.6497C57.1599 21.7569 57.114 21.8565 57.0757 21.9637L54.4113 29.6199C54.2199 30.1712 54.0208 30.7301 53.8218 31.3196C53.7912 31.2354 53.7758 31.1894 53.7529 31.1358Z" fill="#39A3FA"/>
<circle cx="16" cy="16" r="16" fill="white"/>
<path d="M16.6347 23.152C15.4567 23.152 14.4497 22.8923 13.6137 22.373C12.7777 21.8537 12.1381 21.1063 11.6947 20.131C11.2641 19.143 11.0487 17.9397 11.0487 16.521C11.0487 15.0137 11.3147 13.7407 11.8467 12.702C12.3787 11.6633 13.1197 10.878 14.0697 10.346C15.0197 9.814 16.1091 9.548 17.3377 9.548C17.9711 9.548 18.5727 9.61133 19.1427 9.738C19.7254 9.86467 20.2257 10.061 20.6437 10.327L19.9217 11.809C19.5797 11.5683 19.1871 11.4037 18.7437 11.315C18.3131 11.2263 17.8571 11.182 17.3757 11.182C16.0204 11.182 14.9437 11.6063 14.1457 12.455C13.3477 13.291 12.9487 14.5387 12.9487 16.198C12.9487 16.464 12.9614 16.7807 12.9867 17.148C13.0121 17.5153 13.0754 17.8763 13.1767 18.231L12.5307 17.585C12.7207 17.0023 13.0184 16.5147 13.4237 16.122C13.8417 15.7167 14.3357 15.419 14.9057 15.229C15.4884 15.0263 16.1154 14.925 16.7867 14.925C17.6734 14.925 18.4587 15.0897 19.1427 15.419C19.8267 15.7483 20.3651 16.217 20.7577 16.825C21.1504 17.4203 21.3467 18.1297 21.3467 18.953C21.3467 19.8017 21.1377 20.5427 20.7197 21.176C20.3017 21.8093 19.7381 22.297 19.0287 22.639C18.3194 22.981 17.5214 23.152 16.6347 23.152ZM16.5587 21.613C17.1414 21.613 17.6481 21.5053 18.0787 21.29C18.5221 21.0747 18.8704 20.777 19.1237 20.397C19.3771 20.0043 19.5037 19.5483 19.5037 19.029C19.5037 18.2437 19.2314 17.623 18.6867 17.167C18.1421 16.6983 17.4011 16.464 16.4637 16.464C15.8557 16.464 15.3237 16.578 14.8677 16.806C14.4117 17.034 14.0507 17.3443 13.7847 17.737C13.5314 18.117 13.4047 18.554 13.4047 19.048C13.4047 19.504 13.5251 19.9283 13.7657 20.321C14.0064 20.701 14.3611 21.0113 14.8297 21.252C15.2984 21.4927 15.8747 21.613 16.5587 21.613Z" fill="black"/>
</svg>
