<svg width="50" height="52" viewBox="0 0 50 52" fill="none" xmlns="http://www.w3.org/2000/svg">
<path d="M21.6667 48.25V52H16V35.125L20.6278 22H45.3722L50 35.125V52H44.3333V48.25H21.6667ZM21.2889 31.375H44.7111L42.7278 25.75H23.2722L21.2889 31.375ZM24.5 42.625C25.287 42.625 25.9563 42.3512 26.5079 41.8038C27.0594 41.2563 27.3346 40.5925 27.3333 39.8125C27.3333 39.0312 27.0576 38.3669 26.506 37.8194C25.9544 37.2719 25.2858 36.9987 24.5 37C23.713 37 23.0437 37.2737 22.4921 37.8212C21.9406 38.3687 21.6654 39.0325 21.6667 39.8125C21.6667 40.5938 21.9424 41.2581 22.494 41.8056C23.0456 42.3531 23.7142 42.6262 24.5 42.625ZM41.5 42.625C42.287 42.625 42.9563 42.3512 43.5079 41.8038C44.0594 41.2563 44.3346 40.5925 44.3333 39.8125C44.3333 39.0312 44.0576 38.3669 43.506 37.8194C42.9544 37.2719 42.2858 36.9987 41.5 37C40.713 37 40.0437 37.2737 39.4921 37.8212C38.9406 38.3687 38.6654 39.0325 38.6667 39.8125C38.6667 40.5938 38.9424 41.2581 39.494 41.8056C40.0456 42.3531 40.7142 42.6262 41.5 42.625Z" fill="#39A3FA"/>
<circle cx="16" cy="16" r="16" fill="white"/>
<path d="M15.6379 23V10.46L16.4549 11.353H12.6359V9.7H17.5189V23H15.6379Z" fill="black"/>
</svg>
