<svg width="61" height="50" viewBox="0 0 61 50" fill="none" xmlns="http://www.w3.org/2000/svg">
<path d="M58.25 22.9375H19.75C19.203 22.9375 18.6784 23.1548 18.2916 23.5416C17.9048 23.9284 17.6875 24.453 17.6875 25V47C17.6875 47.547 17.9048 48.0716 18.2916 48.4584C18.6784 48.8452 19.203 49.0625 19.75 49.0625H58.25C58.797 49.0625 59.3216 48.8452 59.7084 48.4584C60.0952 48.0716 60.3125 47.547 60.3125 47V25C60.3125 24.453 60.0952 23.9284 59.7084 23.5416C59.3216 23.1548 58.797 22.9375 58.25 22.9375ZM48.1455 44.9375H29.8545C29.4464 42.9579 28.4673 41.1412 27.038 39.712C25.6088 38.2827 23.7921 37.3036 21.8125 36.8955V35.1045C23.7921 34.6964 25.6088 33.7173 27.038 32.288C28.4673 30.8588 29.4464 29.0421 29.8545 27.0625H48.1455C48.5536 29.0421 49.5327 30.8588 50.962 32.288C52.3912 33.7173 54.2079 34.6964 56.1875 35.1045V36.8955C54.2079 37.3036 52.3912 38.2827 50.962 39.712C49.5327 41.1412 48.5536 42.9579 48.1455 44.9375ZM56.1875 30.8334C55.3189 30.5234 54.5301 30.0242 53.8779 29.3721C53.2258 28.7199 52.7266 27.9311 52.4166 27.0625H56.1875V30.8334ZM25.5834 27.0625C25.2734 27.9311 24.7742 28.7199 24.1221 29.3721C23.4699 30.0242 22.6811 30.5234 21.8125 30.8334V27.0625H25.5834ZM21.8125 41.1666C22.6811 41.4766 23.4699 41.9758 24.1221 42.6279C24.7742 43.2801 25.2734 44.0689 25.5834 44.9375H21.8125V41.1666ZM52.4166 44.9375C52.7266 44.0689 53.2258 43.2801 53.8779 42.6279C54.5301 41.9758 55.3189 41.4766 56.1875 41.1666V44.9375H52.4166ZM39 29.125C37.6403 29.125 36.311 29.5282 35.1805 30.2836C34.0499 31.0391 33.1687 32.1128 32.6483 33.3691C32.128 34.6253 31.9918 36.0076 32.2571 37.3412C32.5224 38.6749 33.1772 39.8999 34.1386 40.8614C35.1001 41.8228 36.3251 42.4776 37.6588 42.7429C38.9924 43.0082 40.3747 42.872 41.6309 42.3517C42.8872 41.8313 43.9609 40.9501 44.7164 39.8195C45.4718 38.689 45.875 37.3597 45.875 36C45.875 34.1766 45.1507 32.428 43.8614 31.1386C42.572 29.8493 40.8234 29.125 39 29.125ZM39 38.75C38.4561 38.75 37.9244 38.5887 37.4722 38.2865C37.0199 37.9844 36.6675 37.5549 36.4593 37.0524C36.2512 36.5499 36.1967 35.9969 36.3028 35.4635C36.4089 34.9301 36.6709 34.4401 37.0555 34.0555C37.4401 33.6709 37.9301 33.4089 38.4635 33.3028C38.997 33.1967 39.5499 33.2512 40.0524 33.4593C40.5549 33.6675 40.9844 34.0199 41.2865 34.4722C41.5887 34.9244 41.75 35.4561 41.75 36C41.75 36.7293 41.4603 37.4288 40.9445 37.9445C40.4288 38.4603 39.7293 38.75 39 38.75Z" fill="#39A3FA"/>
<circle cx="16" cy="16" r="16" fill="white"/>
<path d="M16.2509 23.152C15.3136 23.152 14.4016 23.0063 13.5149 22.715C12.6409 22.4237 11.9253 22.031 11.3679 21.537L12.2419 20.036C12.6853 20.454 13.2616 20.796 13.9709 21.062C14.6803 21.328 15.4339 21.461 16.2319 21.461C17.2453 21.461 18.0243 21.2457 18.5689 20.815C19.1136 20.3843 19.3859 19.808 19.3859 19.086C19.3859 18.592 19.2656 18.1613 19.0249 17.794C18.7843 17.4267 18.3663 17.148 17.7709 16.958C17.1883 16.7553 16.3839 16.654 15.3579 16.654H12.3369L13.0399 9.7H20.5449V11.353H13.7429L14.7309 10.422L14.1799 15.913L13.1919 15.001H15.7569C17.0869 15.001 18.1573 15.172 18.9679 15.514C19.7786 15.856 20.3676 16.331 20.7349 16.939C21.1023 17.5343 21.2859 18.2247 21.2859 19.01C21.2859 19.77 21.1023 20.4667 20.7349 21.1C20.3676 21.7207 19.8103 22.221 19.0629 22.601C18.3283 22.9683 17.3909 23.152 16.2509 23.152Z" fill="black"/>
</svg>
