<svg width="56" height="53" viewBox="0 0 56 53" fill="none" xmlns="http://www.w3.org/2000/svg">
<path fill-rule="evenodd" clip-rule="evenodd" d="M40.2504 18.1627L42.513 19.8564C43.1319 20.3196 43.7832 20.5566 44.555 20.5996L47.3769 20.7566C49.0666 20.8505 50.439 22.002 50.825 23.6499L51.4696 26.4017C51.6459 27.1542 51.9925 27.7545 52.5561 28.2835L54.6169 30.2177C55.8509 31.3758 56.162 33.1401 55.3985 34.6504L54.1235 37.1727C53.7749 37.8626 53.6545 38.5452 53.7462 39.3127L54.0817 42.119C54.2825 43.7994 53.3868 45.3508 51.8311 46.0171L49.233 47.1298C48.5225 47.4341 47.9915 47.8796 47.5685 48.5265L46.0215 50.8918C45.0953 52.3082 43.4118 52.9208 41.7919 52.4313L39.0865 51.6137C38.3466 51.3901 37.6535 51.3901 36.9135 51.6137L34.2081 52.4313C32.5882 52.9208 30.9048 52.3082 29.9785 50.8918L28.4316 48.5265C28.0085 47.8796 27.4775 47.4341 26.767 47.1298L24.1688 46.0169C22.6131 45.3507 21.7174 43.7993 21.9182 42.1189L22.2537 39.3125C22.3454 38.545 22.2251 37.8624 21.8764 37.1726L20.6014 34.6503C19.838 33.14 20.149 31.3757 21.383 30.2175L23.4438 28.2833C24.0074 27.7544 24.3539 27.1541 24.5302 26.4015L25.1749 23.6497C25.5608 22.002 26.9332 20.8505 28.6229 20.7564L31.4448 20.5995C32.2166 20.5566 32.868 20.3194 33.4868 19.8562L35.7494 18.1626C37.1041 17.1486 38.8956 17.1486 40.2504 18.1627ZM36.5565 35.9692L34.1011 33.5137C33.4647 32.8773 32.4324 32.8773 31.796 33.5137C31.1596 34.1502 31.1596 35.1824 31.796 35.8188L35.4076 39.4303C36.044 40.0667 37.0763 40.0667 37.7127 39.4303C39.8895 37.2534 42.0417 35.0521 44.2085 32.8652C44.8403 32.2275 44.8383 31.1986 44.2015 30.5653C43.5645 29.9318 42.5326 29.9336 41.9001 30.5724L36.5565 35.9692ZM37.9999 22.8617C34.6481 22.8617 31.6135 24.2204 29.4169 26.417C27.2203 28.6136 25.8617 31.6481 25.8617 34.9999C25.8617 38.3517 27.2203 41.3863 29.4169 43.5829C31.6135 45.7794 34.6481 47.1381 37.9999 47.1381C41.3517 47.1381 44.3863 45.7794 46.5828 43.5829C48.7794 41.3863 50.1381 38.3517 50.1381 34.9999C50.1381 31.6481 48.7794 28.6135 46.5828 26.417C44.3863 24.2204 41.3517 22.8617 37.9999 22.8617ZM45.7432 27.2566C43.7616 25.2749 41.0238 24.0492 37.9999 24.0492C34.9759 24.0492 32.2382 25.2749 30.2566 27.2566C28.2749 29.2382 27.0492 31.9759 27.0492 34.9999C27.0492 38.0239 28.2749 40.7616 30.2566 42.7432C32.2382 44.7249 34.9759 45.9506 37.9999 45.9506C41.0238 45.9506 43.7616 44.7249 45.7432 42.7433C47.7248 40.7617 48.9505 38.0239 48.9505 35C48.9506 31.9759 47.7248 29.2382 45.7432 27.2566Z" fill="#39A3FA"/>
<circle cx="16" cy="16" r="16" fill="white"/>
<path d="M10.867 19.732V18.402L17.669 9.7H19.721L12.976 18.402L12.007 18.098H22.628V19.732H10.867ZM18.258 23V19.732L18.315 18.098V15.21H20.101V23H18.258Z" fill="black"/>
</svg>
