<svg width="20" height="19" viewBox="0 0 20 19" fill="none" xmlns="http://www.w3.org/2000/svg">
<path d="M19.1088 3.72312C19.0751 3.68267 19.033 3.65012 18.9853 3.62776C18.9376 3.60541 18.8857 3.5938 18.833 3.59375H4.03934L3.54699 0.884961C3.50175 0.636551 3.37076 0.411898 3.17686 0.250174C2.98295 0.0884491 2.73843 -8.77829e-05 2.48594 6.53108e-08H0.864258C0.768946 6.53108e-08 0.677537 0.0378627 0.610141 0.105259C0.542745 0.172655 0.504883 0.264063 0.504883 0.359375C0.504883 0.454687 0.542745 0.546096 0.610141 0.613491C0.677537 0.680887 0.768946 0.71875 0.864258 0.71875H2.48145C2.56654 0.717362 2.64937 0.746219 2.71518 0.800184C2.78099 0.854149 2.82551 0.929718 2.84082 1.01344L5.13184 13.6185C5.212 14.0568 5.45215 14.4497 5.80566 14.7209C5.43496 14.9598 5.14644 15.3067 4.979 15.7147C4.81156 16.1227 4.77327 16.5722 4.86927 17.0027C4.96528 17.4331 5.19097 17.8238 5.51591 18.122C5.84086 18.4202 6.24942 18.6116 6.68652 18.6703C7.12362 18.7291 7.56823 18.6524 7.96038 18.4506C8.35254 18.2488 8.67339 17.9316 8.87967 17.5418C9.08595 17.152 9.16774 16.7083 9.114 16.2706C9.06026 15.8328 8.87358 15.4221 8.57914 15.0937H13.9931C13.6639 15.4618 13.471 15.9317 13.4467 16.4248C13.4223 16.918 13.568 17.4046 13.8593 17.8033C14.1506 18.202 14.5699 18.4887 15.0471 18.6153C15.5244 18.742 16.0307 18.701 16.4813 18.4993C16.932 18.2975 17.2998 17.9472 17.5232 17.5069C17.7466 17.0665 17.8121 16.5628 17.7088 16.08C17.6055 15.5971 17.3395 15.1644 16.9554 14.854C16.5714 14.5437 16.0924 14.3746 15.5986 14.375H6.89906C6.64672 14.3749 6.40242 14.2862 6.2087 14.1245C6.01498 13.9628 5.88412 13.7383 5.83891 13.49L5.47953 11.5H16.3264C16.7472 11.5001 17.1547 11.3524 17.4778 11.0828C17.8009 10.8132 18.0192 10.4388 18.0945 10.0248L19.187 4.01781C19.1964 3.96597 19.1942 3.91269 19.1807 3.86177C19.1672 3.81084 19.1427 3.76351 19.1088 3.72312ZM8.41113 16.5312C8.41113 16.8156 8.32682 17.0935 8.16887 17.3299C8.01092 17.5663 7.78641 17.7505 7.52374 17.8593C7.26107 17.9681 6.97204 17.9966 6.69319 17.9411C6.41434 17.8857 6.15821 17.7488 5.95717 17.5477C5.75613 17.3467 5.61922 17.0905 5.56375 16.8117C5.50829 16.5328 5.53676 16.2438 5.64556 15.9811C5.75436 15.7185 5.93861 15.494 6.175 15.336C6.4114 15.1781 6.68932 15.0937 6.97363 15.0937C7.35488 15.0937 7.72051 15.2452 7.9901 15.5148C8.25968 15.7844 8.41113 16.15 8.41113 16.5312ZM17.0361 16.5312C17.0361 16.8156 16.9518 17.0935 16.7939 17.3299C16.6359 17.5663 16.4114 17.7505 16.1487 17.8593C15.8861 17.9681 15.597 17.9966 15.3182 17.9411C15.0393 17.8857 14.7832 17.7488 14.5822 17.5477C14.3811 17.3467 14.2442 17.0905 14.1888 16.8117C14.1333 16.5328 14.1618 16.2438 14.2706 15.9811C14.3794 15.7185 14.5636 15.494 14.8 15.336C15.0364 15.1781 15.3143 15.0937 15.5986 15.0937C15.9799 15.0937 16.3455 15.2452 16.6151 15.5148C16.8847 15.7844 17.0361 16.15 17.0361 16.5312ZM17.3874 9.89629C17.3422 10.1447 17.2112 10.3694 17.0173 10.5311C16.8234 10.6928 16.5789 10.7813 16.3264 10.7812H5.34566L4.16961 4.3125H18.4027L17.3874 9.89629Z" fill="black"/>
</svg>
