<svg width="24" height="24" viewBox="0 0 24 24" fill="none" xmlns="http://www.w3.org/2000/svg">
<path d="M19.9374 6.20555C19.9037 6.1651 19.8616 6.13254 19.8139 6.11019C19.7663 6.08783 19.7143 6.07622 19.6616 6.07617H4.86795L4.37561 3.36738C4.33037 3.11897 4.19937 2.89432 4.00547 2.7326C3.81156 2.57087 3.56705 2.48233 3.31455 2.48242H1.69287C1.59756 2.48242 1.50615 2.52028 1.43875 2.58768C1.37136 2.65508 1.3335 2.74648 1.3335 2.8418C1.3335 2.93711 1.37136 3.02852 1.43875 3.09591C1.50615 3.16331 1.59756 3.20117 1.69287 3.20117H3.31006C3.39515 3.19978 3.47798 3.22864 3.54379 3.28261C3.6096 3.33657 3.65413 3.41214 3.66943 3.49586L5.96045 16.1009C6.04061 16.5392 6.28076 16.9321 6.63428 17.2033C6.26357 17.4422 5.97505 17.7891 5.80761 18.1971C5.64018 18.6051 5.60188 19.0547 5.69789 19.4851C5.79389 19.9156 6.01958 20.3062 6.34453 20.6044C6.66947 20.9026 7.07804 21.094 7.51514 21.1528C7.95223 21.2115 8.39684 21.1348 8.789 20.933C9.18116 20.7313 9.50201 20.4141 9.70829 20.0243C9.91456 19.6344 9.99635 19.1907 9.94261 18.753C9.88887 18.3153 9.7022 17.9045 9.40775 17.5762H14.8217C14.4926 17.9442 14.2997 18.4141 14.2753 18.9073C14.2509 19.4004 14.3966 19.887 14.6879 20.2857C14.9792 20.6844 15.3985 20.9711 15.8757 21.0978C16.353 21.2244 16.8593 21.1835 17.31 20.9817C17.7606 20.7799 18.1284 20.4296 18.3518 19.9893C18.5752 19.5489 18.6408 19.0452 18.5374 18.5624C18.4341 18.0795 18.1681 17.6468 17.7841 17.3365C17.4 17.0261 16.921 16.857 16.4272 16.8574H7.72768C7.47533 16.8573 7.23103 16.7687 7.03731 16.607C6.84359 16.4453 6.71273 16.2207 6.66752 15.9725L6.30814 13.9824H17.155C17.5758 13.9825 17.9833 13.8348 18.3064 13.5653C18.6295 13.2957 18.8478 12.9212 18.9231 12.5072L20.0156 6.50023C20.025 6.44839 20.0228 6.39512 20.0093 6.34419C19.9958 6.29327 19.9713 6.24593 19.9374 6.20555ZM9.23975 19.0137C9.23975 19.298 9.15544 19.5759 8.99748 19.8123C8.83953 20.0487 8.61502 20.2329 8.35235 20.3417C8.08968 20.4505 7.80065 20.479 7.5218 20.4235C7.24296 20.3681 6.98682 20.2312 6.78578 20.0301C6.58474 19.8291 6.44783 19.573 6.39237 19.2941C6.3369 19.0153 6.36537 18.7262 6.47417 18.4636C6.58297 18.2009 6.76722 17.9764 7.00361 17.8184C7.24001 17.6605 7.51794 17.5762 7.80225 17.5762C8.1835 17.5762 8.54913 17.7276 8.81871 17.9972C9.0883 18.2668 9.23975 18.6324 9.23975 19.0137ZM17.8647 19.0137C17.8647 19.298 17.7804 19.5759 17.6225 19.8123C17.4645 20.0487 17.24 20.2329 16.9774 20.3417C16.7147 20.4505 16.4257 20.479 16.1468 20.4235C15.868 20.3681 15.6118 20.2312 15.4108 20.0301C15.2097 19.8291 15.0728 19.573 15.0174 19.2941C14.9619 19.0153 14.9904 18.7262 15.0992 18.4636C15.208 18.2009 15.3922 17.9764 15.6286 17.8184C15.865 17.6605 16.1429 17.5762 16.4272 17.5762C16.8085 17.5762 17.1741 17.7276 17.4437 17.9972C17.7133 18.2668 17.8647 18.6324 17.8647 19.0137ZM18.216 12.3787C18.1708 12.6271 18.0398 12.8518 17.8459 13.0135C17.652 13.1752 17.4075 13.2638 17.155 13.2637H6.17428L4.99822 6.79492H19.2313L18.216 12.3787Z" fill="white"/>
</svg>
