<svg width="18" height="22" viewBox="0 0 18 22" fill="none" xmlns="http://www.w3.org/2000/svg">
<path d="M16.5 0.18042H3C2.60218 0.18042 2.22064 0.338455 1.93934 0.61976C1.65804 0.901064 1.5 1.2826 1.5 1.68042V4.68042H0V6.18042H1.5V9.93042H0V11.4304H1.5V15.1804H0V16.6804H1.5V19.6804C1.5 20.0782 1.65804 20.4598 1.93934 20.7411C2.22064 21.0224 2.60218 21.1804 3 21.1804H16.5C16.8978 21.1804 17.2794 21.0224 17.5607 20.7411C17.842 20.4598 18 20.0782 18 19.6804V1.68042C18 1.2826 17.842 0.901064 17.5607 0.61976C17.2794 0.338455 16.8978 0.18042 16.5 0.18042ZM16.5 19.6804H3V16.6804H4.5V15.1804H3V11.4304H4.5V9.93042H3V6.18042H4.5V4.68042H3V1.68042H16.5V19.6804Z" fill="white"/>
</svg>
