<svg width="82" height="82" viewBox="0 0 82 82" fill="none" xmlns="http://www.w3.org/2000/svg">
<path d="M5.125 15.375C5.125 12.6565 6.20491 10.0494 8.12716 8.12716C10.0494 6.20491 12.6565 5.125 15.375 5.125H66.625C69.3435 5.125 71.9506 6.20491 73.8728 8.12716C75.7951 10.0494 76.875 12.6565 76.875 15.375V66.625C76.875 69.3435 75.7951 71.9506 73.8728 73.8728C71.9506 75.7951 69.3435 76.875 66.625 76.875H15.375C12.6565 76.875 10.0494 75.7951 8.12716 73.8728C6.20491 71.9506 5.125 69.3435 5.125 66.625V15.375Z" fill="#00D26A"/>
<path d="M33.9328 58.9375C32.9514 58.9375 31.9699 58.5711 31.2191 57.8356L16.5001 43.378C16.1446 43.0312 15.8621 42.6167 15.6692 42.159C15.4763 41.7013 15.377 41.2097 15.377 40.713C15.377 40.2163 15.4763 39.7247 15.6692 39.267C15.8621 38.8093 16.1446 38.3948 16.5001 38.048C17.2261 37.3402 18.1999 36.9441 19.2138 36.9441C20.2277 36.9441 21.2015 37.3402 21.9275 38.048L33.9328 49.8381L60.0729 24.1669C60.7988 23.4591 61.7726 23.063 62.7865 23.063C63.8005 23.063 64.7743 23.4591 65.5002 24.1669C65.856 24.5136 66.1388 24.928 66.3319 25.3857C66.525 25.8434 66.6245 26.3352 66.6245 26.8319C66.6245 27.3287 66.525 27.8204 66.3319 28.2782C66.1388 28.7359 65.856 29.1503 65.5002 29.4969L36.6465 57.8331C35.9227 58.5443 34.9475 58.9412 33.9328 58.9375Z" fill="#F4F4F4"/>
</svg>
