<svg width="29" height="22" viewBox="0 0 29 22" fill="none" xmlns="http://www.w3.org/2000/svg">
<path d="M27.8085 7.63062C26.5507 8.61499 24.9647 9.81812 19.3866 13.865C18.2929 14.6853 16.2694 16.49 14.3554 16.49C12.3866 16.49 10.4179 14.6853 9.26943 13.865C3.69131 9.81812 2.10537 8.61499 0.847559 7.63062C0.628809 7.46655 0.355371 7.63062 0.355371 7.90405V19.0603C0.355371 20.5369 1.50381 21.6853 2.98037 21.6853H25.7304C27.1522 21.6853 28.3554 20.5369 28.3554 19.0603V7.90405C28.3554 7.63062 28.0272 7.46655 27.8085 7.63062ZM14.3554 14.6853C15.6132 14.74 17.4179 13.0994 18.3476 12.4431C25.621 7.19312 26.1679 6.70093 27.8085 5.38843C28.1366 5.16968 28.3554 4.78687 28.3554 4.34937V3.3103C28.3554 1.88843 27.1522 0.685303 25.7304 0.685303H2.98037C1.50381 0.685303 0.355371 1.88843 0.355371 3.3103V4.34937C0.355371 4.78687 0.519434 5.16968 0.847559 5.38843C2.48818 6.70093 3.03506 7.19312 10.3085 12.4431C11.2382 13.0994 13.0429 14.74 14.3554 14.6853Z" fill="white"/>
</svg>
