<svg width="49" height="36" viewBox="0 0 49 36" fill="none" xmlns="http://www.w3.org/2000/svg">
<path d="M30.9375 35.875L45 35.875C45.9946 35.875 46.9484 35.4799 47.6517 34.7767C48.3549 34.0734 48.75 33.1196 48.75 32.125L48.75 17.125C48.75 16.1304 48.3549 15.1766 47.6516 14.4734C46.9484 13.7701 45.9946 13.375 45 13.375L30.9375 13.375L30.9375 11.5C30.9437 9.51278 31.7358 7.60871 33.141 6.20353C34.5462 4.79834 36.4503 4.00618 38.4375 4C38.9348 4 39.4117 3.80246 39.7633 3.45083C40.115 3.0992 40.3125 2.62228 40.3125 2.125C40.3125 1.62772 40.115 1.1508 39.7633 0.799172C39.4117 0.447545 38.9348 0.250001 38.4375 0.250001C35.4538 0.250001 32.5923 1.43527 30.4825 3.54505C28.3728 5.65483 27.1875 8.51632 27.1875 11.5L27.1875 32.125C27.1875 33.1196 27.5826 34.0734 28.2859 34.7767C28.9891 35.4799 29.9429 35.875 30.9375 35.875ZM30.9375 17.125L45 17.125L45 32.125L30.9375 32.125L30.9375 17.125ZM3.75 35.875L17.8125 35.875C18.8071 35.875 19.7609 35.4799 20.4641 34.7767C21.1674 34.0734 21.5625 33.1196 21.5625 32.125L21.5625 17.125C21.5625 16.1304 21.1674 15.1766 20.4641 14.4734C19.7609 13.7701 18.8071 13.375 17.8125 13.375L3.75 13.375L3.75 11.5C3.75618 9.51278 4.54834 7.60872 5.95353 6.20353C7.35871 4.79835 9.26278 4.00619 11.25 4C11.7473 4 12.2242 3.80246 12.5758 3.45083C12.9275 3.0992 13.125 2.62228 13.125 2.125C13.125 1.62772 12.9275 1.15081 12.5758 0.799175C12.2242 0.447547 11.7473 0.250003 11.25 0.250003C8.26631 0.250004 5.40483 1.43527 3.29504 3.54505C1.18526 5.65484 -2.39177e-06 8.51632 -2.13093e-06 11.5L-3.27835e-07 32.125C-2.40888e-07 33.1196 0.395088 34.0734 1.09835 34.7767C1.80161 35.4799 2.75544 35.875 3.75 35.875ZM3.75 17.125L17.8125 17.125L17.8125 32.125L3.75 32.125L3.75 17.125Z" fill="#BCB8B8"/>
</svg>
