<svg width="50" height="36" viewBox="0 0 50 36" fill="none" xmlns="http://www.w3.org/2000/svg">
<path d="M18.4375 0.125H4.375C3.38044 0.125 2.42661 0.520088 1.72335 1.22335C1.02009 1.92661 0.625 2.88044 0.625 3.875V18.875C0.625 19.8696 1.02009 20.8234 1.72335 21.5266C2.42661 22.2299 3.38044 22.625 4.375 22.625H18.4375V24.5C18.4313 26.4872 17.6392 28.3913 16.234 29.7965C14.8288 31.2017 12.9247 31.9938 10.9375 32C10.4402 32 9.96331 32.1975 9.61168 32.5492C9.26004 32.9008 9.0625 33.3777 9.0625 33.875C9.0625 34.3723 9.26004 34.8492 9.61168 35.2008C9.96331 35.5525 10.4402 35.75 10.9375 35.75C13.9212 35.75 16.7827 34.5647 18.8925 32.455C21.0022 30.3452 22.1875 27.4837 22.1875 24.5V3.875C22.1875 2.88044 21.7924 1.92661 21.0891 1.22335C20.3859 0.520088 19.4321 0.125 18.4375 0.125ZM18.4375 18.875H4.375V3.875H18.4375V18.875ZM45.625 0.125H31.5625C30.5679 0.125 29.6141 0.520088 28.9109 1.22335C28.2076 1.92661 27.8125 2.88044 27.8125 3.875V18.875C27.8125 19.8696 28.2076 20.8234 28.9109 21.5266C29.6141 22.2299 30.5679 22.625 31.5625 22.625H45.625V24.5C45.6188 26.4872 44.8267 28.3913 43.4215 29.7965C42.0163 31.2017 40.1122 31.9938 38.125 32C37.6277 32 37.1508 32.1975 36.7992 32.5492C36.4475 32.9008 36.25 33.3777 36.25 33.875C36.25 34.3723 36.4475 34.8492 36.7992 35.2008C37.1508 35.5525 37.6277 35.75 38.125 35.75C41.1087 35.75 43.9702 34.5647 46.08 32.455C48.1897 30.3452 49.375 27.4837 49.375 24.5V3.875C49.375 2.88044 48.9799 1.92661 48.2766 1.22335C47.5734 0.520088 46.6196 0.125 45.625 0.125ZM45.625 18.875H31.5625V3.875H45.625V18.875Z" fill="#BCB8B8"/>
</svg>
