<svg width="18" height="18" viewBox="0 0 18 18" fill="none" xmlns="http://www.w3.org/2000/svg">
<path d="M12.8901 11.6804H12.1001L11.8201 11.4104C12.4451 10.6844 12.9018 9.82917 13.1577 8.90601C13.4135 7.98285 13.4622 7.01455 13.3001 6.07039C12.8301 3.2904 10.5101 1.07039 7.71011 0.730395C6.72573 0.60586 5.7259 0.708166 4.78714 1.02948C3.84837 1.3508 2.99556 1.88261 2.29394 2.58423C1.59233 3.28584 1.06052 4.13866 0.739201 5.07742C0.417883 6.01618 0.315577 7.01601 0.440112 8.00039C0.780112 10.8004 3.00011 13.1204 5.78011 13.5904C6.72426 13.7524 7.69257 13.7038 8.61573 13.4479C9.53888 13.1921 10.3941 12.7353 11.1201 12.1104L11.3901 12.3904V13.1804L15.6401 17.4304C16.0501 17.8404 16.7201 17.8404 17.1301 17.4304C17.5401 17.0204 17.5401 16.3504 17.1301 15.9404L12.8901 11.6804ZM6.89011 11.6804C4.40011 11.6804 2.39011 9.67039 2.39011 7.18039C2.39011 4.69039 4.40011 2.68039 6.89011 2.68039C9.38011 2.68039 11.3901 4.69039 11.3901 7.18039C11.3901 9.67039 9.38011 11.6804 6.89011 11.6804Z" fill="#D1D1D1"/>
</svg>
