<svg width="41" height="41" viewBox="0 0 41 41" fill="none" xmlns="http://www.w3.org/2000/svg">
<rect x="0.995117" y="0.564453" width="39" height="39" rx="19.5" fill="#F4F4F4"/>
<path d="M20.9252 12.3145C16.6439 12.3145 13.1752 15.7832 13.1752 20.0645C13.1752 24.3457 16.6439 27.8145 20.9252 27.8145C25.2064 27.8145 28.6752 24.3457 28.6752 20.0645C28.6752 15.7832 25.2064 12.3145 20.9252 12.3145ZM24.7064 17.627L23.4564 23.627C23.3627 24.0645 23.1127 24.1582 22.7377 23.9707L20.8002 22.5332L19.8627 23.4395C19.7689 23.5332 19.6752 23.627 19.4877 23.627L19.6127 21.6582L23.2064 18.4082C23.3627 18.2832 23.1752 18.1895 22.9564 18.3145L18.5189 21.127L16.6127 20.5332C16.2064 20.4082 16.2064 20.0957 16.7064 19.9082L24.1752 17.0332C24.5189 16.9082 24.8314 17.127 24.7064 17.627Z" fill="#535353"/>
<rect x="0.995117" y="0.564453" width="39" height="39" rx="19.5" stroke="#535353"/>
</svg>
