<svg width="41" height="41" viewBox="0 0 41 41" fill="none" xmlns="http://www.w3.org/2000/svg">
<rect x="0.995117" y="0.564453" width="39" height="39" rx="19.5" fill="#F4F4F4"/>
<path d="M20.9252 16.4707C18.9252 16.4707 17.3314 18.0957 17.3314 20.0645C17.3314 22.0645 18.9252 23.6582 20.9252 23.6582C22.8939 23.6582 24.5189 22.0645 24.5189 20.0645C24.5189 18.0957 22.8939 16.4707 20.9252 16.4707ZM20.9252 22.4082C19.6439 22.4082 18.5814 21.377 18.5814 20.0645C18.5814 18.7832 19.6127 17.752 20.9252 17.752C22.2064 17.752 23.2377 18.7832 23.2377 20.0645C23.2377 21.377 22.2064 22.4082 20.9252 22.4082ZM25.4877 16.3457C25.4877 15.877 25.1127 15.502 24.6439 15.502C24.1752 15.502 23.8002 15.877 23.8002 16.3457C23.8002 16.8145 24.1752 17.1895 24.6439 17.1895C25.1127 17.1895 25.4877 16.8145 25.4877 16.3457ZM27.8627 17.1895C27.8002 16.0645 27.5502 15.0645 26.7377 14.252C25.9252 13.4395 24.9252 13.1895 23.8002 13.127C22.6439 13.0645 19.1752 13.0645 18.0189 13.127C16.8939 13.1895 15.9252 13.4395 15.0814 14.252C14.2689 15.0645 14.0189 16.0645 13.9564 17.1895C13.8939 18.3457 13.8939 21.8145 13.9564 22.9707C14.0189 24.0957 14.2689 25.0645 15.0814 25.9082C15.9252 26.7207 16.8939 26.9707 18.0189 27.0332C19.1752 27.0957 22.6439 27.0957 23.8002 27.0332C24.9252 26.9707 25.9252 26.7207 26.7377 25.9082C27.5502 25.0645 27.8002 24.0957 27.8627 22.9707C27.9252 21.8145 27.9252 18.3457 27.8627 17.1895ZM26.3627 24.1895C26.1439 24.8145 25.6439 25.2832 25.0502 25.5332C24.1127 25.9082 21.9252 25.8145 20.9252 25.8145C19.8939 25.8145 17.7064 25.9082 16.8002 25.5332C16.1752 25.2832 15.7064 24.8145 15.4564 24.1895C15.0814 23.2832 15.1752 21.0957 15.1752 20.0645C15.1752 19.0645 15.0814 16.877 15.4564 15.9395C15.7064 15.3457 16.1752 14.877 16.8002 14.627C17.7064 14.252 19.8939 14.3457 20.9252 14.3457C21.9252 14.3457 24.1127 14.252 25.0502 14.627C25.6439 14.8457 26.1127 15.3457 26.3627 15.9395C26.7377 16.877 26.6439 19.0645 26.6439 20.0645C26.6439 21.0957 26.7377 23.2832 26.3627 24.1895Z" fill="#535353"/>
<rect x="0.995117" y="0.564453" width="39" height="39" rx="19.5" stroke="#535353"/>
</svg>
