<svg width="41" height="41" viewBox="0 0 41 41" fill="none" xmlns="http://www.w3.org/2000/svg">
<rect x="0.995117" y="0.564453" width="39" height="39" rx="19.5" fill="#F4F4F4"/>
<path d="M27.2689 16.8145C27.8939 16.3457 28.4564 15.7832 28.8939 15.127C28.3314 15.377 27.6752 15.5645 27.0189 15.627C27.7064 15.2207 28.2064 14.5957 28.4564 13.8145C27.8314 14.1895 27.1127 14.4707 26.3939 14.627C25.7689 13.9707 24.9252 13.5957 23.9877 13.5957C22.1752 13.5957 20.7064 15.0645 20.7064 16.877C20.7064 17.127 20.7377 17.377 20.8002 17.627C18.0814 17.4707 15.6439 16.1582 14.0189 14.1895C13.7377 14.6582 13.5814 15.2207 13.5814 15.8457C13.5814 16.9707 14.1439 17.9707 15.0502 18.5645C14.5189 18.5332 13.9877 18.4082 13.5502 18.1582V18.1895C13.5502 19.7832 14.6752 21.0957 16.1752 21.4082C15.9252 21.4707 15.6127 21.5332 15.3314 21.5332C15.1127 21.5332 14.9252 21.502 14.7064 21.4707C15.1127 22.7832 16.3314 23.7207 17.7689 23.752C16.6439 24.627 15.2377 25.1582 13.7064 25.1582C13.4252 25.1582 13.1752 25.127 12.9252 25.0957C14.3627 26.0332 16.0814 26.5645 17.9564 26.5645C23.9877 26.5645 27.2689 21.5957 27.2689 17.252C27.2689 17.0957 27.2689 16.9707 27.2689 16.8145Z" fill="#535353"/>
<rect x="0.995117" y="0.564453" width="39" height="39" rx="19.5" stroke="#535353"/>
</svg>
